HIERARCHY
ROOT Hips
{
    OFFSET 0.000000 0.000000 0.000000
    CHANNELS 6 Xposition Yposition Zposition Zrotation Xrotation Yrotation
    JOINT Spine
    {
        OFFSET -0.000000 7.810951 0.000000
        CHANNELS 3 Zrotation Xrotation Yrotation
        JOINT Spine1
        {
            OFFSET -0.000000 18.868288 0.000000
            CHANNELS 3 Zrotation Xrotation Yrotation
            JOINT Neck
            {
                OFFSET -0.000000 18.790800 1.708255
                CHANNELS 3 Zrotation Xrotation Yrotation
                JOINT Head
                {
                    OFFSET -0.000000 13.335769 -1.905110
                    CHANNELS 3 Zrotation Xrotation Yrotation
                    End Site
                    {
                        OFFSET -0.000000 23.813873 0.000000
                    }
                }
            }
            JOINT LeftShoulder
            {
                OFFSET 3.868973 15.461964 -0.252686
                CHANNELS 3 Zrotation Xrotation Yrotation
                JOINT LeftArm
                {
                    OFFSET 15.258958 0.000000 0.000000
                    CHANNELS 3 Zrotation Xrotation Yrotation
                    JOINT LeftForeArm
                    {
                        OFFSET 27.600050 0.000000 0.000000
                        CHANNELS 3 Zrotation Xrotation Yrotation
                        JOINT LeftHand
                        {
                            OFFSET 23.737446 0.000000 0.000000
                            CHANNELS 3 Zrotation Xrotation Yrotation
                            End Site
                            {
                                OFFSET 14.288324 0.000000 0.000000
                            }
                        }
                    }
                }
            }
            JOINT RightShoulder
            {
                OFFSET -3.750262 15.461964 -0.252686
                CHANNELS 3 Zrotation Xrotation Yrotation
                JOINT RightArm
                {
                    OFFSET -15.258958 0.000000 0.000000
                    CHANNELS 3 Zrotation Xrotation Yrotation
                    JOINT RightForeArm
                    {
                        OFFSET -27.600050 0.000000 0.000000
                        CHANNELS 3 Zrotation Xrotation Yrotation
                        JOINT RightHand
                        {
                            OFFSET -23.737446 0.000000 0.000000
                            CHANNELS 3 Zrotation Xrotation Yrotation
                            End Site
                            {
                                OFFSET -14.288324 0.000000 0.000000
                            }
                        }
                    }
                }
            }
        }
    }
    JOINT LeftUpLeg
    {
        OFFSET 9.525549 0.000000 0.000000
        CHANNELS 3 Zrotation Xrotation Yrotation
        JOINT LeftLeg
        {
            OFFSET -0.000000 -45.198063 0.000000
            CHANNELS 3 Zrotation Xrotation Yrotation
            JOINT LeftFoot
            {
                OFFSET -0.000000 -37.850700 0.000000
                CHANNELS 3 Zrotation Xrotation Yrotation
                JOINT LeftToeBase
                {
                    OFFSET -0.000000 -6.191607 14.288324
                    CHANNELS 3 Zrotation Xrotation Yrotation
                    End Site
                    {
                        OFFSET -0.000000 0.000000 3.810220
                    }
                }
            }
        }
    }
    JOINT RightUpLeg
    {
        OFFSET -9.525549 0.000000 0.000000
        CHANNELS 3 Zrotation Xrotation Yrotation
        JOINT RightLeg
        {
            OFFSET -0.000000 -45.198063 0.000000
            CHANNELS 3 Zrotation Xrotation Yrotation
            JOINT RightFoot
            {
                OFFSET -0.000000 -37.850700 0.000000
                CHANNELS 3 Zrotation Xrotation Yrotation
                JOINT RightToeBase
                {
                    OFFSET -0.000000 -6.191607 14.288324
                    CHANNELS 3 Zrotation Xrotation Yrotation
                    End Site
                    {
                        OFFSET -0.000000 0.000000 3.810220
                    }
                }
            }
        }
    }
}
MOTION
Frames:    4
Frame Time:    0.008333
-13.991782    89.941154    91.018120    0.084357    -1.413972    179.234283    -1.503818    -6.073946    0.354863    -0.015255    2.581015    0.435141    5.275664    22.319427    5.578736    -3.155444    -3.259766    5.576654    22.319683    0.327601    -0.588700    -19.203978    0.542458    -5.739862    0.594601    -6.076958    5.634032    -6.480370    -5.728604    -6.695344    -16.984039    -1.865284    1.252633    20.859730    -2.100507    -8.076084    -4.450339    -5.076017    5.187799    -4.826174    -4.685486    -4.512532    2.834637    4.532223    -5.686403    -1.806841    -2.818238    -5.788626    -0.016996    -4.836382    20.083006    0.000000    0.000000    0.000000    -5.641009    8.158717    6.196394    3.150584    -8.776820    7.372482    0.226733    -2.259036    -20.819685    0.000000    0.000000    0.000000    
-13.985343    89.940643    91.013512    0.091122    -1.413629    179.240875    -1.504429    -6.071984    0.355644    -0.020629    2.582206    0.436088    5.333206    22.299332    5.567829    -3.225224    -3.200786    5.557394    22.350550    0.330537    -0.589920    -19.190847    0.568241    -5.739283    0.614969    -6.105825    5.606329    -6.475210    -5.758183    -6.703624    -16.960817    -1.866574    1.263732    20.877329    -2.051628    -8.087315    -4.447054    -5.063216    5.230302    -4.913519    -4.667918    -4.507787    2.845979    4.544136    -5.682442    -1.809035    -2.824206    -5.946117    0.003219    -4.842574    20.330931    0.000000    0.000000    0.000000    -5.628994    8.162446    6.171632    3.152720    -8.766412    7.394829    0.203071    -2.269169    -20.812765    0.000000    0.000000    0.000000    
-13.982792    89.941010    91.014519    0.092291    -1.424099    179.254288    -1.513783    -6.070539    0.354381    -0.001004    2.578315    0.434760    5.301076    22.274935    5.562456    -3.194679    -3.150520    5.555208    22.358728    0.348404    -0.581616    -19.187201    0.540068    -5.761801    0.645606    -6.111431    5.591040    -6.497235    -5.764122    -6.699656    -16.963484    -1.859714    1.259120    20.894743    -2.017409    -8.081321    -4.441369    -5.067255    5.261482    -5.035910    -4.666431    -4.502821    2.852475    4.539428    -5.695060    -1.811452    -2.857545    -5.765436    -0.049011    -4.823412    20.053982    0.000000    0.000000    0.000000    -5.629177    8.153063    6.175861    3.161149    -8.770638    7.363451    0.214303    -2.258164    -20.800703    0.000000    0.000000    0.000000    
-13.980548    89.940994    91.012825    0.090771    -1.429419    179.263138    -1.510358    -6.074641    0.354058    -0.015946    2.595902    0.434588    5.309329    22.180315    5.600231    -3.203709    -3.001296    5.592703    22.389957    0.362319    -0.558050    -19.183821    0.501180    -5.792171    0.672049    -6.137722    5.556410    -6.514088    -5.791597    -6.681026    -16.976913    -1.957479    1.230349    20.945494    -1.959245    -8.059224    -4.449313    -5.055856    5.253860    -5.128753    -4.652653    -4.472360    2.860112    4.565962    -5.571852    -1.822164    -2.909672    -6.081894    -0.022320    -4.790877    20.333027    0.000000    0.000000    0.000000    -5.627943    8.153030    6.193698    3.160373    -8.776876    7.318801    0.189345    -2.255478    -20.787960    0.000000    0.000000    0.000000    
